# xmcd
#
# Track frame offsets:
#	150
#	15652
#	35737
#	53570
#	73565
#	94815
#	115775
#	131147
#	144125
#	159595
#	179659
#	197522
#	217450
#	238647
#	259627
#	274937
#
# Disc length: 3839 seconds
#
# Revision: 0
# Processed by: cddbd v1.5.1PL2 Copyright (c) Steve Scherf et al.
# Submitted via: audiograbber 1.83.01
#
DISCID=ed0efd10
DTITLE=Various Artist - Sc3145
DYEAR=1900
DGENRE=Country
TTITLE0=Stuart, Marty - Red Red Win And Cheatin' Songs
TTITLE1=Brown, T. Graham - Never In A Million Tears
TTITLE2=McCready, Mindy - One In A Million
TTITLE3=Clark, Terri - Unsung Hero
TTITLE4=Jackson, Alan - Little Man
TTITLE5=Will, Mark - She's In Love
TTITLE6=McCoy, Neal - Girls Of Summer, The
TTITLE7=Womack, Lee Ann - Now You See Me Now You Don't
TTITLE8=Stuart, Marty - Red Red Win And Cheatin' Songs (Vocals)
TTITLE9=Brown, T. Graham - Never In A Million Tears (Vocals)
TTITLE10=McCready, Mindy - One In A Million (Vocals)
TTITLE11=Clark, Terri - Unsung Hero (Vocals)
TTITLE12=Jackson, Alan - Little Man (Vocals)
TTITLE13=Will, Mark - She's In Love (Vocals)
TTITLE14=McCoy, Neal - Girls Of Summer, The (Vocals)
TTITLE15=Womack, Lee Ann - Now You See Me Now You Don't (Vocals)
EXTD=
EXTT0=
EXTT1=
EXTT2=
EXTT3=
EXTT4=
EXTT5=
EXTT6=
EXTT7=
EXTT8=
EXTT9=
EXTT10=
EXTT11=
EXTT12=
EXTT13=
EXTT14=
EXTT15=
PLAYORDER=
